<svg width="255" height="42" viewBox="0 0 255 42" fill="none" xmlns="http://www.w3.org/2000/svg">
<rect width="14.4375" height="5.25" fill="#00C365"/>
<rect y="36.75" width="14.4375" height="5.25" fill="#00C365"/>
<rect x="27.5625" y="36.75" width="14.4375" height="5.25" fill="#00C365"/>
<rect x="27.5625" width="14.4375" height="5.25" fill="#00C365"/>
<rect x="5.25" width="14.4375" height="5.25" transform="rotate(90 5.25 0)" fill="#00C365"/>
<rect x="42" width="14.4375" height="5.25" transform="rotate(90 42 0)" fill="#00C365"/>
<rect x="5.25" y="27.5625" width="14.4375" height="5.25" transform="rotate(90 5.25 27.5625)" fill="#00C365"/>
<rect x="42" y="27.5625" width="14.4375" height="5.25" transform="rotate(90 42 27.5625)" fill="#00C365"/>
<rect x="52.5" y="8.53125" width="24.9375" height="5.25" transform="rotate(90 52.5 8.53125)" fill="#00C365"/>
<path d="M52.5 12.4688L36.75 16.4062V11.1563L52.5 7.21875V12.4688Z" fill="#00C365"/>
<path d="M52.5 29.5312L36.75 25.5938V30.8437L52.5 34.7812V29.5312Z" fill="#00C365"/>
<path d="M76.0076 30.1875C78.5136 30.1875 80.6518 29.2915 82.4222 27.4994C84.2006 25.6991 85.0899 23.5347 85.0899 21.0061V20.9939C85.0899 20.4538 84.8918 19.9914 84.4957 19.6068C84.1077 19.2304 83.6429 19.0504 83.1012 19.0668H76.0076C75.4822 19.0668 75.0335 19.255 74.6617 19.6314C74.2898 20.016 74.1039 20.4742 74.1039 21.0061C74.1039 21.538 74.2898 21.9922 74.6617 22.3686C75.0335 22.745 75.4822 22.9332 76.0076 22.9332H80.9065C80.5184 23.9398 79.8838 24.754 79.0027 25.3759C78.1054 26.006 77.107 26.321 76.0076 26.321C74.5606 26.321 73.3238 25.8014 72.2971 24.7621C71.2705 23.7229 70.7571 22.4709 70.7571 21.0061C70.7571 19.5414 71.2705 18.2894 72.2971 17.2501C73.3238 16.2027 74.5606 15.679 76.0076 15.679C77.4627 15.679 78.7036 16.1986 79.7303 17.2379C80.1021 17.6225 80.5508 17.8107 81.0762 17.8025C81.6098 17.8025 82.0625 17.6143 82.4343 17.2379C82.8062 16.8614 82.9921 16.4073 82.9921 15.8754C82.9921 15.3353 82.8021 14.877 82.4222 14.5006C80.6518 12.7085 78.5136 11.8125 76.0076 11.8125C73.5097 11.8125 71.3715 12.7126 69.5931 14.5129C67.8227 16.305 66.9375 18.4694 66.9375 21.0061C66.9375 23.5347 67.8227 25.6991 69.5931 27.4994C71.3715 29.2915 73.5097 30.1875 76.0076 30.1875Z" fill="#576885"/>
<path d="M99.4141 18.5881C99.4141 19.3818 99.1311 20.0651 98.5653 20.6379C98.0075 21.2025 97.3325 21.4848 96.5403 21.4848H91.2898V15.679H96.5403C97.3325 15.679 98.0075 15.9654 98.5653 16.5382C99.1311 17.1028 99.4141 17.7861 99.4141 18.5881ZM95.7521 25.3513L99.9719 29.6229C100.344 29.9993 100.792 30.1875 101.318 30.1875C101.843 30.1875 102.296 29.9993 102.676 29.6229C103.048 29.2465 103.234 28.7882 103.234 28.2481C103.234 27.7162 103.048 27.2621 102.676 26.8856L100.117 24.2957C101.071 23.682 101.823 22.8801 102.373 21.8899C102.947 20.867 103.234 19.7664 103.234 18.5881C103.234 16.7223 102.579 15.1266 101.269 13.801C99.9597 12.4753 98.3834 11.8125 96.5403 11.8125H89.386C88.8525 11.8125 88.3998 12.0048 88.0279 12.3894C87.6561 12.7658 87.4701 13.22 87.4701 13.7519V28.2481C87.4701 28.7882 87.6561 29.2465 88.0279 29.6229C88.3998 29.9993 88.8525 30.1875 89.386 30.1875C89.9115 30.1875 90.3601 29.9993 90.732 29.6229C91.1038 29.2465 91.2898 28.7882 91.2898 28.2481V25.3513H95.7521Z" fill="#576885"/>
<path d="M119.448 30.1875C119.973 30.1875 120.426 29.9993 120.806 29.6229C121.178 29.2465 121.364 28.7882 121.364 28.2481C121.364 27.7162 121.178 27.2621 120.806 26.8856C120.426 26.5092 119.973 26.321 119.448 26.321L109.42 26.321V22.9332L117.059 22.9332C117.585 22.9332 118.037 22.745 118.417 22.3686C118.789 21.9922 118.975 21.538 118.975 21.0061C118.975 20.4661 118.789 20.0078 118.417 19.6314C118.037 19.255 117.585 19.0668 117.059 19.0668H109.42V15.679H119.448C119.973 15.679 120.426 15.4908 120.806 15.1144C121.178 14.7379 121.364 14.2838 121.364 13.7519C121.364 13.22 121.178 12.7658 120.806 12.3894C120.426 12.0048 119.973 11.8125 119.448 11.8125L107.516 11.8125C106.982 11.8125 106.53 12.0048 106.158 12.3894C105.786 12.7658 105.6 13.22 105.6 13.7519V28.2481C105.6 28.7882 105.786 29.2465 106.158 29.6229C106.53 29.9993 106.982 30.1875 107.516 30.1875H119.448Z" fill="#576885"/>
<path d="M137.578 30.1875C138.103 30.1875 138.556 29.9993 138.936 29.6229C139.308 29.2465 139.494 28.7882 139.494 28.2481C139.494 27.7162 139.308 27.2621 138.936 26.8856C138.556 26.5092 138.103 26.321 137.578 26.321H127.55V22.9332H135.189C135.715 22.9332 136.167 22.745 136.547 22.3686C136.919 21.9922 137.105 21.538 137.105 21.0061C137.105 20.4661 136.919 20.0078 136.547 19.6314C136.167 19.255 135.715 19.0668 135.189 19.0668H127.55V15.679H137.578C138.103 15.679 138.556 15.4908 138.936 15.1144C139.308 14.7379 139.494 14.2838 139.494 13.7519C139.494 13.22 139.308 12.7658 138.936 12.3894C138.556 12.0048 138.103 11.8125 137.578 11.8125H125.646C125.113 11.8125 124.66 12.0048 124.288 12.3894C123.916 12.7658 123.73 13.22 123.73 13.7519V28.2481C123.73 28.7882 123.916 29.2465 124.288 29.6229C124.66 29.9993 125.113 30.1875 125.646 30.1875H137.578Z" fill="#576885"/>
<path d="M143.121 11.9352C142.741 12.0744 142.438 12.3076 142.212 12.6349C141.977 12.9704 141.86 13.3427 141.86 13.7519V28.2481C141.86 28.7882 142.046 29.2465 142.418 29.6229C142.79 29.9993 143.243 30.1875 143.776 30.1875C144.302 30.1875 144.75 29.9993 145.122 29.6229C145.494 29.2465 145.68 28.7882 145.68 28.2481V19.0913L154.241 29.4878C154.621 29.9543 155.11 30.1875 155.708 30.1875C155.934 30.1875 156.153 30.1507 156.363 30.077C156.743 29.9379 157.046 29.7006 157.272 29.3651C157.507 29.0296 157.624 28.6573 157.624 28.2481V13.7519C157.624 13.22 157.438 12.7658 157.066 12.3894C156.686 12.0048 156.233 11.8125 155.708 11.8125C155.182 11.8125 154.734 12.0048 154.362 12.3894C153.99 12.7658 153.804 13.22 153.804 13.7519V22.9087L145.243 12.5121C144.985 12.2012 144.661 11.9925 144.273 11.8861C143.885 11.7798 143.501 11.7961 143.121 11.9352Z" fill="#576885"/>
<path d="M172.905 18.5881C172.905 19.3818 172.622 20.0651 172.056 20.6379C171.499 21.2025 170.824 21.4848 170.031 21.4848H164.781V15.679L170.031 15.679C170.824 15.679 171.499 15.9654 172.056 16.5382C172.622 17.1028 172.905 17.7861 172.905 18.5881ZM169.243 25.3513L173.463 29.6229C173.835 29.9993 174.283 30.1875 174.809 30.1875C175.334 30.1875 175.787 29.9993 176.167 29.6229C176.539 29.2465 176.725 28.7882 176.725 28.2481C176.725 27.7162 176.539 27.2621 176.167 26.8856L173.608 24.2957C174.562 23.682 175.314 22.8801 175.864 21.8899C176.438 20.867 176.725 19.7664 176.725 18.5881C176.725 16.7223 176.07 15.1266 174.76 13.801C173.451 12.4753 171.874 11.8125 170.031 11.8125L162.877 11.8125C162.344 11.8125 161.891 12.0048 161.519 12.3894C161.147 12.7658 160.961 13.22 160.961 13.7519V28.2481C160.961 28.7882 161.147 29.2465 161.519 29.6229C161.891 29.9993 162.344 30.1875 162.877 30.1875C163.403 30.1875 163.851 29.9993 164.223 29.6229C164.595 29.2465 164.781 28.7882 164.781 28.2481V25.3513H169.243Z" fill="#576885"/>
<path d="M192.466 21.0061C192.466 22.4709 191.953 23.7229 190.926 24.7621C189.891 25.8014 188.65 26.321 187.203 26.321C185.756 26.321 184.52 25.8014 183.493 24.7621C182.466 23.7229 181.953 22.4709 181.953 21.0061C181.953 19.5414 182.466 18.2894 183.493 17.2501C184.52 16.2027 185.756 15.679 187.203 15.679C188.65 15.679 189.891 16.2027 190.926 17.2501C191.953 18.2894 192.466 19.5414 192.466 21.0061ZM178.133 21.0061C178.133 23.5347 179.018 25.6991 180.789 27.4994C182.567 29.2915 184.705 30.1875 187.203 30.1875C189.709 30.1875 191.848 29.2915 193.618 27.4994C195.396 25.6991 196.286 23.5347 196.286 21.0061C196.286 18.4694 195.396 16.305 193.618 14.5129C191.848 12.7126 189.709 11.8125 187.203 11.8125C184.705 11.8125 182.567 12.7126 180.789 14.5129C179.018 16.305 178.133 18.4694 178.133 21.0061Z" fill="#576885"/>
<path d="M212.041 21.0061C212.041 22.4709 211.527 23.7229 210.501 24.7621C209.466 25.8014 208.225 26.321 206.778 26.321C205.331 26.321 204.094 25.8014 203.068 24.7621C202.041 23.7229 201.528 22.4709 201.528 21.0061C201.528 19.5414 202.041 18.2894 203.068 17.2501C204.094 16.2027 205.331 15.679 206.778 15.679C208.225 15.679 209.466 16.2027 210.501 17.2501C211.527 18.2894 212.041 19.5414 212.041 21.0061ZM197.708 21.0061C197.708 23.5347 198.593 25.6991 200.364 27.4994C202.142 29.2915 204.28 30.1875 206.778 30.1875C209.284 30.1875 211.422 29.2915 213.193 27.4994C214.971 25.6991 215.86 23.5347 215.86 21.0061C215.86 18.4694 214.971 16.305 213.193 14.5129C211.422 12.7126 209.284 11.8125 206.778 11.8125C204.28 11.8125 202.142 12.7126 200.364 14.5129C198.593 16.305 197.708 18.4694 197.708 21.0061Z" fill="#576885"/>
<path d="M221.502 12.3894C221.228 12.1112 220.9 11.9312 220.52 11.8493C220.14 11.7757 219.773 11.8125 219.417 11.9598C219.061 12.1153 218.778 12.3526 218.568 12.6717C218.35 12.999 218.241 13.3591 218.241 13.7519V28.2481C218.241 28.7882 218.427 29.2465 218.798 29.6229C219.17 29.9993 219.623 30.1875 220.156 30.1875C220.682 30.1875 221.131 29.9993 221.502 29.6229C221.874 29.2465 222.06 28.7882 222.06 28.2481V18.4162L225.965 22.3686C226.337 22.745 226.785 22.9332 227.311 22.9332C227.844 22.9332 228.297 22.745 228.669 22.3686L232.573 18.4162V28.2481C232.573 28.7882 232.759 29.2465 233.131 29.6229C233.503 29.9993 233.952 30.1875 234.477 30.1875C235.003 30.1875 235.451 29.9993 235.823 29.6229C236.203 29.2465 236.393 28.7882 236.393 28.2481V13.7519C236.393 13.3591 236.284 12.999 236.066 12.6717C235.855 12.3526 235.568 12.1153 235.205 11.9598C234.849 11.8125 234.481 11.7757 234.101 11.8493C233.729 11.9312 233.406 12.1112 233.131 12.3894L227.311 18.2689L221.502 12.3894Z" fill="#576885"/>
<path d="M240.668 26.321C240.134 26.321 239.682 26.5092 239.31 26.8856C238.938 27.2621 238.752 27.7162 238.752 28.2481C238.752 28.7882 238.938 29.2465 239.31 29.6229C239.682 29.9993 240.134 30.1875 240.668 30.1875H249.023C250.534 30.1875 251.828 29.6433 252.903 28.555C253.978 27.4666 254.516 26.1574 254.516 24.6271C254.516 23.0969 253.978 21.7876 252.903 20.6993C251.828 19.6109 250.534 19.0668 249.023 19.0668H244.245C243.784 19.0668 243.392 18.9031 243.069 18.5758C242.737 18.2403 242.572 17.8393 242.572 17.3729C242.572 16.9064 242.737 16.5096 243.069 16.1822C243.392 15.8467 243.784 15.679 244.245 15.679H252.6C253.125 15.679 253.578 15.4908 253.958 15.1144C254.33 14.7379 254.516 14.2838 254.516 13.7519C254.516 13.22 254.33 12.7658 253.958 12.3894C253.578 12.0048 253.125 11.8125 252.6 11.8125H244.245C242.733 11.8125 241.44 12.3567 240.365 13.445C239.29 14.5334 238.752 15.8426 238.752 17.3729C238.752 18.9113 239.29 20.2206 240.365 21.3007C241.44 22.3891 242.733 22.9332 244.245 22.9332H249.023C249.483 22.9332 249.875 23.101 250.199 23.4365C250.53 23.7638 250.696 24.1607 250.696 24.6271C250.696 25.0936 250.53 25.4945 250.199 25.83C249.875 26.1574 249.483 26.321 249.023 26.321H240.668Z" fill="#576885"/>
</svg>
