<svg width="1920" height="1080" version="1.1" viewBox="0 0 508 285.75" xmlns="http://www.w3.org/2000/svg">
 <defs>
  <clipPath id="clipPath1524">
   <rect x="-1059.6" y="58.586" width="1623.7" height="1080"/>
  </clipPath>
  <clipPath id="clipPath1528">
   <rect x="49.153" y="-20.4" width="1920" height="739.25"/>
  </clipPath>
 </defs>
 <g>
  <g transform="matrix(.26458 0 0 .38654 -13.005 7.8856)" style="fill:none;stroke-width:.83">
   <path d="m-290.71 145.69s115.47 57.681 163.1 15.129c33.117-29.585 34.799-108.83 34.799-108.83m-324.24 119.69s55.296 74.208 106.32 77.704c44.386 3.041 61.216-33.848 103.87-46.164 52.349-15.113 100.75 23.46 138.74-15.697 37.932-39.103 12.484-139.84 12.484-139.84m-435.71 131.16c3.324-1.477 58.376 11.4 85.487 18.023s81.14 91.244 148.12 88.575c44.925-1.79 62.931-31.163 105.06-46.691 61.71-22.746 130.17 14.384 162.88-42.944 31.694-55.556-38.527-160.26-38.527-160.26m-504.57 161.76s83.356 1.402 134.23 15.749c80.517 22.705 102.44 111.52 185.78 107.74 55.824-2.528 77.755-40.039 130.58-58.035 60.658-20.663 131.79 21.202 160-36.635 13.785-28.271 10.963-49.54 5.3757-80.668-10.777-60.044-95.994-123.23-95.994-123.23m-555.59 190.9s123.88 7.385 199.16 30.7c91.036 28.194 123.89 130.79 217.05 112.52 45.749-8.972 61.448-39.702 104.36-57.87 66.481-28.148 143.59 19.481 179.79-43.278 22.641-39.253 18.393-72.335 6.562-116.38-18.811-70.033-130.91-131.41-130.91-131.41m19.212-20.747s124.9 59.049 154.43 133.17c21.736 54.559 37.194 101.58 4.863 150.09-36.579 54.885-104.25 13.14-162.88 42.944-44.395 22.569-55.901 59.15-103.04 75.236-107.37 36.643-154.8-104.13-267.86-116.51-44.051-4.821-69.255 18.247-113.36.828s-68.833-27.185-112.94-44.603m-21.368 9.496s78.561 62.085 138.4 69.913c43.077 5.635 66.946-12.593 110.34-12.414 130.99.541 203.27 186.59 314.97 118.55 37.019-22.547 39.606-57.841 76.459-80.66 61.676-38.189 135.41 32.324 184.7-21.041 54.779-59.309 25.533-135.69-12.084-207.92-39.324-75.503-173.45-131.18-173.45-131.18m-647.03 274.63s72.309 73.312 132.33 89.845c56.454 15.55 91.006-7.645 149.41-6.077 39.662 1.065 62.297.159 101.37 7.374 87.745 16.204 123.73 123.74 208.13 95.658 41.158-13.697 48.155-50.349 87.604-68.378 61.539-28.124 117.1 27.723 173.18-10.176 86.375-58.376 71.864-175.62 21.578-268.12-43.994-80.931-197.48-127.68-197.48-127.68m-679.63 302.05s81.186 84.562 149.17 105.34c80.136 24.493 130-27.273 213.12-17.872 119.76 13.546 172.6 160.69 285.51 119.44 39.917-14.583 50.221-46.529 90.209-60.918 51.063-18.374 88.36 15.554 139.11-3.655 126.38-47.833 152.47-216.84 87.643-336.98-54.133-100.32-259.07-131.91-259.07-131.91m20.787-23.601s229.52-.9588 305.85 99.626c103.95 136.97 54.316 362.05-103.29 426.53-62.624 25.619-109.25-12.004-173.18 10.176-39.687 13.77-53.84 40.279-94.207 51.922-121.84 35.144-168.76-124.08-294.84-140.43-95.736-12.413-155.46 63.233-245.25 27.128-62.762-25.236-131.04-114.12-131.04-114.12" clip-path="url(#clipPath1528)" opacity=".15" stroke="#fff" style="stroke-width:.82864"/>
  </g>
  <g transform="matrix(.31287 0 0 .26458 331.52 -15.501)" clip-path="url(#clipPath1524)" style="fill:none;stroke-width:.83">
   <path d="m728.07 511.56s-116.47 32.2-126.26 93.163c-6.808 42.384 37.67 100.4 37.67 100.4m164.66-292.83s-82.639-18.056-121.43 11.981c-33.741 26.126-24.6 63.371-48.24 99.431-29.012 44.251-86.137 47.408-90.934 99.775-4.79 52.295 71.636 108.46 71.636 108.46m238.38-372.18c-1.544 3.182-48.644 29.044-72 41.577-23.357 12.534-111.09-13.813-157.82 30.827-31.344 29.942-27.385 62.535-48.792 100.57-31.357 55.708-102.11 72.696-92.622 134.75 9.192 60.14 120.17 90.592 120.17 90.592m270.36-438.09s-60.881 52.161-105.82 74.304c-71.117 35.042-138.13-14.794-196.01 41.074-38.773 37.424-32.949 78.369-60.645 125-31.8 53.54-107.21 68.83-94.181 128.38 6.366 29.109 20.664 42.593 42.638 61.398 42.388 36.274 140.23 27.326 140.23 27.326m290.32-491.57s-93.534 73.711-161.23 104.98c-81.862 37.808-164.7-14.961-221.3 57.585-27.797 35.629-21.392 67.726-41.84 108.15-31.68 62.633-114.71 77.592-104.62 145.78 6.316 42.65 28.453 63.713 62.378 87.821 53.937 38.328 170.11 10.937 170.11 10.937m-1.883 27.163s-124.06 37.237-188.08 2.808c-47.122-25.342-85.372-49.268-90.044-104.75-5.285-62.773 67.556-75.941 92.622-134.75 18.981-44.536 6.18-78.163 30.874-119.79 56.25-94.819 171.6-23.911 260.22-87.134 34.526-24.633 39.389-57.287 81.218-72.902 41.829-15.616 65.28-24.371 107.11-39.986m9.924-20.454s-92.415 5.496-140.05 38.04c-34.293 23.428-40.985 51.752-72.364 79.305-94.713 83.165-254.08-4.426-295.35 115.71-13.678 39.816 4.808 66.829-8.593 106.73-22.429 66.784-116.22 63.143-120.97 132.93-5.28 77.561 59.839 113.8 128.6 141.71 71.874 29.175 200.64-16.368 200.64-16.368m307.95-610.07s-94.382-6.56-147.17 19.846c-49.651 24.835-61.177 63.543-104.17 99.67-29.197 24.534-44.988 39.623-77.305 59.359-72.579 44.325-160.52-10-205.15 64.016-21.764 36.096-5.673 66.898-23.707 105.02-28.133 59.464-100.38 54.772-118.94 117.78-28.589 97.045 49.47 172.04 139.05 206.44 78.37 30.096 215.94-34.214 215.94-34.214m315.63-650.56s-107.27-8.982-168.24 19.451c-71.874 33.513-77.961 102.52-143.28 148.78-94.115 66.654-217.04-5.381-274.63 96.287-20.358 35.942-9.364 65.47-29.886 101.32-26.205 45.775-72.646 45.185-98.147 91.362-63.501 114.99 15.147 253.08 131.14 298.07 96.855 37.559 262.76-70.458 262.76-70.458m-1.372 30.218s-164.85 147.09-277.86 123.5c-153.89-32.13-247.9-225.53-171.49-372.4 30.359-58.356 85.654-61.059 118.94-117.78 20.661-35.209 15.576-63.287 37.954-97.402 67.543-102.97 193.16-18.481 293.45-87.154 76.151-52.147 75.575-144.6 161.1-175.93 59.781-21.898 160.24-1.576 160.24-1.576" opacity=".15" stroke="#fff" style="stroke-width:.92104"/>
  </g>
 </g>
</svg>
